# xmcd
#
# Track frame offsets:
#	150
#	17012
#	36140
#	54130
#	68380
#	82895
#	101572
#	117300
#	134312
#	150860
#	166807
#	183670
#	202797
#	220787
#	235037
#	249555
#	268235
#	283962
#	300975
#	317522
#
# Disc length: 4445 seconds
#
# Revision: 2
# Processed by: cddbd v1.5.2PL0 Copyright (c) Steve Scherf et al.
# Submitted via: audiograbber 1.83.01
#
DISCID=fb115b14
DTITLE=Top Hits Monthly Country  - THC0110
DYEAR=2001
DGENRE=Karaoke
TTITLE0=Phil Vassar  - Six Pack Summer (vocals)
TTITLE1=Mark Wills  - Loving Every Minute (vocals)
TTITLE2=Dixie Chicks  - Heartbreak Town (vocals)
TTITLE3=Gary Allan  - Man Of Me  (vocals)
TTITLE4=Terri Clark - Gettin' There (vocals)
TTITLE5=Marshall Dyllon  - She Ain't Gonna Cry (vocals)
TTITLE6=Martina Mcbride  - When God Fearin' Women Get The Blue (vocals)
TTITLE7=Trace Adkins  - I'm Tryin )vocals)
TTITLE8=Clay Walker  - If You Ever Feel Like Lovin' Me Again  (vocals)
TTITLE9=Lonestar - Unusually Unusual  (vocals)
TTITLE10=Phil Vassar - Six Pack Summer
TTITLE11=Mark Willis - Loving Every Minute
TTITLE12=Dixie Chicks - Heartbreak Town
TTITLE13=Gary Alan - Man Of Me
TTITLE14=Terri Clark - Gettin' There
TTITLE15=Marshall Dyllon - She Ain't Gonna Cry
TTITLE16=Martina Mcbride - When God Fearin' Women Get The Blues
TTITLE17=Trace Adkins - I'm Tryin'
TTITLE18=Clay Walker - If You Ever Feel Like Lovin' Me Again
TTITLE19=Lonestar - Unusually Unusual
EXTD=fixed vocals tracks
EXTT0=
EXTT1=
EXTT2=
EXTT3=
EXTT4=
EXTT5=
EXTT6=
EXTT7=
EXTT8=
EXTT9=
EXTT10=
EXTT11=
EXTT12=
EXTT13=
EXTT14=
EXTT15=
EXTT16=
EXTT17=
EXTT18=
EXTT19=
PLAYORDER=
